# Blender 4.0.2
# www.blender.org
mtllib Water.mtl
o Plane
v -8.147561 -0.092210 0.844350
v 17.002043 0.000000 1.000000
v -8.147561 -0.092210 -0.849191
v 17.002043 0.000000 -1.000000
v -8.147561 -0.092210 -0.002421
v 0.000000 0.000000 1.000000
v 17.002043 0.000000 0.000000
v -0.029118 -0.004513 -1.913677
v 0.000000 0.000000 0.000000
v -8.147561 -0.092210 0.420965
v 8.501021 0.000000 2.273148
v 17.002043 0.000000 -0.500000
v -6.006309 -0.027783 -3.340096
v -8.147561 -0.092210 -0.425806
v -8.501021 0.000000 1.000000
v 17.002043 0.000000 0.500000
v 8.501021 0.000000 -1.869598
v 0.000000 0.000000 -0.500000
v 0.000000 0.000000 0.500000
v -8.501021 0.000000 0.000000
v 8.501021 0.000000 0.000000
v 8.501021 0.000000 0.500000
v -8.501021 0.000000 0.500000
v -8.501021 0.000000 -0.500000
v 8.501021 0.000000 -0.500000
v -8.147561 -0.092210 0.632657
v 12.751532 0.000000 1.000000
v 17.002043 0.000000 -0.750000
v -7.681298 -0.030669 -1.435510
v -8.147561 -0.092210 -0.214113
v -4.250511 0.000000 1.000000
v 17.002043 0.000000 0.250000
v 4.250511 0.000000 -1.000000
v 0.000000 0.000000 -0.750000
v 0.000000 0.000000 0.250000
v -4.548354 -0.092210 -0.002421
v 4.250511 0.000000 0.000000
v -8.147561 -0.092210 0.209272
v 4.250511 0.000000 1.640990
v 17.002043 0.000000 -0.250000
v -4.248693 -0.015158 -3.536956
v -8.147561 -0.092210 -0.637499
v -4.548354 -0.092210 0.844350
v 17.002043 0.000000 0.750000
v 12.751532 0.000000 -1.673466
v 0.000000 0.000000 -0.250000
v 0.000000 0.000000 0.750000
v -4.250511 0.000000 0.000000
v 12.751532 0.000000 0.000000
v 8.501021 0.000000 0.250000
v 8.501021 0.000000 0.750000
v 4.250511 0.000000 0.500000
v 12.751532 0.000000 0.500000
v -8.501021 0.000000 0.250000
v -8.501021 0.000000 0.750000
v -4.548354 -0.092210 0.420965
v -4.250511 0.000000 0.500000
v -8.501021 0.000000 -0.750000
v -8.501021 0.000000 -0.250000
v -4.548354 -0.092210 -0.425806
v -4.250511 0.000000 -0.500000
v 8.501021 0.000000 -0.750000
v 8.501021 0.000000 -0.250000
v 4.250511 0.000000 -0.500000
v 12.751532 0.000000 -0.500000
v 12.751532 0.000000 -0.250000
v 4.250511 0.000000 -0.250000
v 4.250511 0.000000 -0.750000
v -4.250511 0.000000 -0.250000
v -4.548354 -0.092210 -0.214113
v -4.548354 -0.092210 -0.637499
v -4.250511 0.000000 0.750000
v -4.548354 -0.092210 0.632657
v -4.548354 -0.092210 0.209272
v 12.751532 0.000000 0.750000
v 4.250511 0.000000 0.750000
v 4.250511 0.000000 0.250000
v 12.751532 0.000000 0.250000
v -4.250511 0.000000 0.250000
v -4.250511 0.000000 -0.750000
v 12.751532 0.000000 -0.750000
vn -0.0000 1.0000 -0.0000
vn -0.0003 1.0000 -0.0050
vn -0.0233 -0.9997 -0.0000
vn -0.0395 -0.9992 -0.0025
vn -0.0002 1.0000 -0.0032
vn -0.0044 0.9972 0.0743
vn -0.0024 1.0000 -0.0091
vt 0.875000 0.875000
vt 1.000000 0.875000
vt 1.000000 1.000000
vt 0.875000 1.000000
vt 0.375000 0.875000
vt 0.500000 0.875000
vt 0.500000 1.000000
vt 0.375000 1.000000
vt 0.375000 0.375000
vt 0.500000 0.375000
vt 0.500000 0.500000
vt 0.375000 0.500000
vt 0.875000 0.375000
vt 1.000000 0.375000
vt 1.000000 0.500000
vt 0.875000 0.500000
vt 0.625000 0.375000
vt 0.750000 0.375000
vt 0.750000 0.500000
vt 0.625000 0.500000
vt 0.625000 0.125000
vt 0.750000 0.125000
vt 0.750000 0.250000
vt 0.625000 0.250000
vt 0.875000 0.125000
vt 1.000000 0.125000
vt 1.000000 0.250000
vt 0.875000 0.250000
vt 0.125000 0.375000
vt 0.250000 0.375000
vt 0.250000 0.500000
vt 0.125000 0.500000
vt 0.125000 0.125000
vt 0.250000 0.125000
vt 0.250000 0.250000
vt 0.125000 0.250000
vt 0.375000 0.125000
vt 0.500000 0.125000
vt 0.500000 0.250000
vt 0.375000 0.250000
vt 0.125000 0.875000
vt 0.250000 0.875000
vt 0.250000 1.000000
vt 0.125000 1.000000
vt 0.125000 0.625000
vt 0.250000 0.625000
vt 0.250000 0.750000
vt 0.125000 0.750000
vt 0.375000 0.625000
vt 0.500000 0.625000
vt 0.500000 0.750000
vt 0.375000 0.750000
vt 0.625000 0.875000
vt 0.750000 0.875000
vt 0.750000 1.000000
vt 0.625000 1.000000
vt 0.625000 0.625000
vt 0.750000 0.625000
vt 0.750000 0.750000
vt 0.625000 0.750000
vt 0.875000 0.625000
vt 1.000000 0.625000
vt 1.000000 0.750000
vt 0.875000 0.750000
vt 0.000000 0.625000
vt 0.000000 0.750000
vt 0.000000 0.500000
vt 0.000000 0.875000
vt 0.000000 1.000000
vt 0.250000 0.000000
vt 0.375000 0.000000
vt 0.500000 0.000000
vt 0.000000 0.125000
vt 0.000000 0.250000
vt 0.000000 0.000000
vt 0.125000 0.000000
vt 0.000000 0.375000
vt 0.750000 0.000000
vt 0.875000 0.000000
vt 1.000000 0.000000
vt 0.625000 0.000000
s 0
usemtl water
f 81/1/1 28/2/1 4/3/1 45/4/1
f 80/5/2 34/6/2 8/7/2 41/8/2
f 79/9/1 35/10/1 9/11/1 48/12/1
f 78/13/1 32/14/1 7/15/1 49/16/1
f 77/17/1 50/18/1 21/19/1 37/20/1
f 76/21/1 51/22/1 22/23/1 52/24/1
f 75/25/1 44/26/1 16/27/1 53/28/1
f 74/29/3 54/30/3 20/31/3 36/32/3
f 73/33/3 55/34/3 23/35/3 56/36/3
f 72/37/1 47/38/1 19/39/1 57/40/1
f 71/41/4 58/42/4 13/43/4 29/44/4
f 70/45/3 59/46/3 24/47/3 60/48/3
f 69/49/1 46/50/1 18/51/1 61/52/1
f 68/53/1 62/54/1 17/55/1 33/56/1
f 67/57/1 63/58/1 25/59/1 64/60/1
f 66/61/1 40/62/1 12/63/1 65/64/1
f 63/58/1 66/61/1 65/64/1 25/59/1
f 21/19/1 49/16/1 66/61/1 63/58/1
f 49/16/1 7/15/1 40/62/1 66/61/1
f 46/50/1 67/57/1 64/60/1 18/51/1
f 9/11/1 37/20/1 67/57/1 46/50/1
f 37/20/1 21/19/1 63/58/1 67/57/1
f 34/6/5 68/53/5 33/56/5 8/7/5
f 18/51/1 64/60/1 68/53/1 34/6/1
f 64/60/1 25/59/1 62/54/1 68/53/1
f 59/46/1 69/49/1 61/52/1 24/47/1
f 20/31/1 48/12/1 69/49/1 59/46/1
f 48/12/1 9/11/1 46/50/1 69/49/1
f 30/65/1 70/45/1 60/48/1 14/66/1
f 5/67/1 36/32/1 70/45/1 30/65/1
f 36/32/3 20/31/3 59/46/3 70/45/3
f 42/68/6 71/41/6 29/44/6 3/69/6
f 14/66/1 60/48/1 71/41/1 42/68/1
f 60/48/3 24/47/3 58/42/3 71/41/3
f 55/34/1 72/37/1 57/40/1 23/35/1
f 15/70/1 31/71/1 72/37/1 55/34/1
f 31/71/1 6/72/1 47/38/1 72/37/1
f 26/73/1 73/33/1 56/36/1 10/74/1
f 1/75/1 43/76/1 73/33/1 26/73/1
f 43/76/3 15/70/3 55/34/3 73/33/3
f 38/77/1 74/29/1 36/32/1 5/67/1
f 10/74/1 56/36/1 74/29/1 38/77/1
f 56/36/3 23/35/3 54/30/3 74/29/3
f 51/22/1 75/25/1 53/28/1 22/23/1
f 11/78/1 27/79/1 75/25/1 51/22/1
f 27/79/1 2/80/1 44/26/1 75/25/1
f 47/38/1 76/21/1 52/24/1 19/39/1
f 6/72/1 39/81/1 76/21/1 47/38/1
f 39/81/1 11/78/1 51/22/1 76/21/1
f 35/10/1 77/17/1 37/20/1 9/11/1
f 19/39/1 52/24/1 77/17/1 35/10/1
f 52/24/1 22/23/1 50/18/1 77/17/1
f 50/18/1 78/13/1 49/16/1 21/19/1
f 22/23/1 53/28/1 78/13/1 50/18/1
f 53/28/1 16/27/1 32/14/1 78/13/1
f 54/30/1 79/9/1 48/12/1 20/31/1
f 23/35/1 57/40/1 79/9/1 54/30/1
f 57/40/1 19/39/1 35/10/1 79/9/1
f 58/42/7 80/5/7 41/8/7 13/43/7
f 24/47/1 61/52/1 80/5/1 58/42/1
f 61/52/1 18/51/1 34/6/1 80/5/1
f 62/54/1 81/1/1 45/4/1 17/55/1
f 25/59/1 65/64/1 81/1/1 62/54/1
f 65/64/1 12/63/1 28/2/1 81/1/1
