{
	"asset":{
		"generator":"Khronos glTF Blender I/O v4.2.60",
		"version":"2.0"
	},
	"scene":0,
	"scenes":[
		{
			"name":"Scene",
			"nodes":[
				0
			]
		}
	],
	"nodes":[
		{
			"mesh":0,
			"name":"pCube10_pCube10_0",
			"scale":[
				0.009999999776482582,
				0.010000001639127731,
				0.010000001639127731
			]
		}
	],
	"meshes":[
		{
			"name":"pCube10_pCube10_0",
			"primitives":[
				{
					"attributes":{
						"POSITION":0,
						"NORMAL":1
					},
					"indices":2
				}
			]
		}
	],
	"accessors":[
		{
			"bufferView":0,
			"componentType":5126,
			"count":961,
			"max":[
				4.150691032409668,
				16.46584129333496,
				0.6394606232643127
			],
			"min":[
				-4.144379138946533,
				8.276925086975098,
				-0.6406290531158447
			],
			"type":"VEC3"
		},
		{
			"bufferView":1,
			"componentType":5126,
			"count":961,
			"type":"VEC3"
		},
		{
			"bufferView":2,
			"componentType":5123,
			"count":2535,
			"type":"SCALAR"
		}
	],
	"bufferViews":[
		{
			"buffer":0,
			"byteLength":11532,
			"byteOffset":0,
			"target":34962
		},
		{
			"buffer":0,
			"byteLength":11532,
			"byteOffset":11532,
			"target":34962
		},
		{
			"buffer":0,
			"byteLength":5070,
			"byteOffset":23064,
			"target":34963
		}
	],
	"buffers":[
		{
			"byteLength":28136,
			"uri":"scene.bin"
		}
	]
}
